<svg xmlns="http://www.w3.org/2000/svg" viewBox="0 0 430 860" preserveAspectRatio="xMidYMid slice">
  <rect width="430" height="860" fill="#F9FAF5"/>
  <path d="M0 250C78 200 145 204 220 250C292 294 355 286 430 236V0H0Z" fill="#EFF4E9"/>
  <path d="M0 318C78 258 155 260 226 308C302 360 367 336 430 292V520H0Z" fill="#DCEBDD"/>
  <path d="M0 410C84 340 164 352 238 402C308 450 370 428 430 382V610H0Z" fill="#2F6B45"/>
  <path d="M0 490C88 428 170 438 242 484C316 532 378 510 430 470V650H0Z" fill="#184D31"/>

  <!-- subtle cultivated rows visible along the horizon -->
  <path d="M0 345C92 305 178 321 258 367C330 409 382 401 430 377" fill="none" stroke="#E9CD7A" stroke-width="7" opacity=".75"/>
  <path d="M0 378C96 338 182 356 262 398C330 434 382 428 430 404" fill="none" stroke="#F7F8F1" stroke-width="5" opacity=".7"/>

  <path d="M0 610H430V860H0Z" fill="#F9FAF5"/>
</svg>
